# xmcd
#
# Track frame offsets: 
#        150
#        11924
#        26558
#        41049
#        54453
#        67543
#        81518
#        93924
#        107392
#        120083
#        134190
#        148693
#        160610
#        172287
#        186045
#        199787
#
# Disc length: 2853 seconds
#
# Revision: 0
# Processed by: cddbd v1.5.1PL2 Copyright (c) Steve Scherf et al.
# Submitted via: ExactAudioCopy v0.95b3
#
DISCID=d60b2310
DTITLE=John Lee Hooker - Highway Blues CD2
DYEAR=2005
DGENRE=Blues
TTITLE0=Walkin' The Boogie
TTITLE1=Sugar Mama
TTITLE2=Sally Mae
TTITLE3=Union Station Blues
TTITLE4=Johnny Lee's Original Boogie
TTITLE5=Louise
TTITLE6=High Priced Woman
TTITLE7=Ground Hog Blues
TTITLE8=Leave My Wife Alone
TTITLE9=Dreamin' Blues
TTITLE10=Forgive Me
TTITLE11=Howlin' Wolf
TTITLE12=Queen Bee
TTITLE13=Tease My Baby
TTITLE14=Hobo Blues
TTITLE15=Boogie Chillen
EXTD=
EXTT0=
EXTT1=
EXTT2=
EXTT3=
EXTT4=
EXTT5=
EXTT6=
EXTT7=
EXTT8=
EXTT9=
EXTT10=
EXTT11=
EXTT12=
EXTT13=
EXTT14=
EXTT15=
PLAYORDER=
